<svg width="1600" height="1200" viewBox="0 0 1600 1200" fill="none" xmlns="http://www.w3.org/2000/svg">
  <defs>
    <linearGradient id="bg4" x1="0" y1="0" x2="1600" y2="1200" gradientUnits="userSpaceOnUse">
      <stop stop-color="#FFFBF3"/>
      <stop offset="1" stop-color="#FFF5E6"/>
    </linearGradient>
    <linearGradient id="hero4" x1="80" y1="84" x2="1520" y2="220" gradientUnits="userSpaceOnUse">
      <stop stop-color="#6B4A00"/>
      <stop offset="1" stop-color="#B7791F"/>
    </linearGradient>
    <filter id="shadow4" x="-20%" y="-20%" width="140%" height="140%">
      <feDropShadow dx="0" dy="12" stdDeviation="16" flood-color="#CBB58F" flood-opacity="0.28"/>
    </filter>
    <style>
      .t{font-family:"PingFang SC","Microsoft YaHei","Noto Sans SC",sans-serif}
      .h1{font-size:34px;font-weight:700;fill:#FFF}
      .s1{font-size:15px;font-weight:500;fill:#F3E2A7}
      .title{font-size:22px;font-weight:700;fill:#203044}
      .sub{font-size:15px;font-weight:500;fill:#7B8AA0}
      .k{font-size:14px;font-weight:500;fill:#6B7A90}
      .v{font-size:18px;font-weight:700;fill:#203044}
      .body{font-size:15px;font-weight:500;fill:#324255}
      .chip{font-size:14px;font-weight:700;fill:#A16207}
      .btnw{font-size:18px;font-weight:700;fill:#324255}
      .btny{font-size:18px;font-weight:700;fill:#FFF}
    </style>
  </defs>
  <rect width="1600" height="1200" fill="url(#bg4)"/>
  <rect x="80" y="84" width="1440" height="150" rx="28" fill="url(#hero4)" filter="url(#shadow4)"/>
  <text x="124" y="138" class="t h1">异常运单详情</text>
  <text x="124" y="173" class="t s1">运单管理 / 异常运单 / 地址预警确认</text>
  <rect x="124" y="190" width="130" height="44" rx="22" fill="#FEF3C7"/>
  <text x="162" y="218" class="t chip">地址预警</text>
  <text x="330" y="214" class="t s1">当前状态</text>
  <text x="410" y="214" class="t" style="font-size:17px;font-weight:700;fill:#FFF">待寄件网点确认</text>

  <rect x="80" y="274" width="920" height="766" rx="28" fill="#FFF" filter="url(#shadow4)"/>
  <rect x="1032" y="274" width="488" height="766" rx="28" fill="#FFF" filter="url(#shadow4)"/>

  <text x="120" y="328" class="t title">运单基础信息</text>
  <rect x="120" y="372" width="840" height="142" rx="18" fill="#FFFBF3"/>
  <text x="148" y="414" class="t k">收件人</text>
  <text x="148" y="442" class="t v">李先生 / 139xxxx0002</text>
  <text x="472" y="414" class="t k">寄件网点</text>
  <text x="472" y="442" class="t v">上海寄件网点</text>
  <text x="148" y="488" class="t k">原始收件地址</text>
  <text x="148" y="512" class="t body">杭州市余杭区五常街道文一西路 999 号 3 栋</text>

  <text x="120" y="586" class="t title">预警信息</text>
  <rect x="120" y="630" width="840" height="176" rx="18" fill="#FFFBF3"/>
  <text x="148" y="670" class="t k">系统预警内容</text>
  <text x="148" y="698" class="t v">收件地址疑似不完整</text>
  <text x="472" y="670" class="t k">触发时间</text>
  <text x="472" y="698" class="t v">2026-03-03 12:15</text>
  <text x="148" y="746" class="t k">预警原因</text>
  <text x="148" y="774" class="t body">缺少门牌号和楼层信息，可能影响派送时效，需要寄件网点确认地址是否准确。</text>

  <text x="120" y="878" class="t title">确认处理区</text>
  <text x="120" y="906" class="t sub">寄件网点可确认“地址无误”或补充修正信息</text>

  <rect x="120" y="936" width="250" height="58" rx="16" fill="#FEF3C7" stroke="#F59E0B"/>
  <circle cx="154" cy="965" r="8" fill="#F59E0B"/>
  <text x="176" y="971" class="t body">地址无误</text>
  <rect x="390" y="936" width="250" height="58" rx="16" fill="#FFF" stroke="#D7DEE8"/>
  <circle cx="424" cy="965" r="8" fill="#D7DEE8"/>
  <text x="446" y="971" class="t body">地址需修正</text>

  <rect x="660" y="924" width="300" height="82" rx="16" fill="#FFFBF3"/>
  <text x="688" y="956" class="t k">确认说明</text>
  <text x="688" y="982" class="t body">已电话复核，地址信息正确。</text>

  <text x="1072" y="328" class="t title">流程状态</text>
  <line x1="1112" y1="410" x2="1440" y2="410" stroke="#E9DFBD" stroke-width="6" stroke-linecap="round"/>
  <line x1="1112" y1="410" x2="1440" y2="410" stroke="#EAB308" stroke-width="6" stroke-linecap="round"/>
  <circle cx="1112" cy="410" r="22" fill="#EAB308"/>
  <circle cx="1440" cy="410" r="22" fill="#EAB308"/>
  <text x="1080" y="462" class="t body">系统预警</text>
  <text x="1396" y="462" class="t body">寄件网点确认</text>

  <rect x="1072" y="520" width="408" height="160" rx="20" fill="#FEF3C7"/>
  <text x="1100" y="560" class="t k">当前节点</text>
  <text x="1100" y="594" class="t" style="font-size:24px;font-weight:700;fill:#A16207">待寄件网点确认</text>
  <text x="1100" y="628" class="t body">仅寄件网点可见并完成确认；若地址需修正，则在当前区域展开地址修改表单。</text>

  <text x="1072" y="740" class="t title">权限说明</text>
  <rect x="1072" y="768" width="408" height="144" rx="20" fill="#FFFBF3"/>
  <text x="1100" y="808" class="t k">当前登录角色</text>
  <text x="1240" y="808" class="t body">寄件网点</text>
  <text x="1100" y="848" class="t k">当前可见范围</text>
  <text x="1240" y="848" class="t body">寄件网点</text>
  <text x="1100" y="888" class="t k">当前可执行动作</text>
  <text x="1240" y="888" class="t body">确认</text>

  <text x="1072" y="960" class="t title">处理记录</text>
  <rect x="1072" y="990" width="408" height="36" rx="12" fill="#FFFBF3"/>
  <text x="1092" y="1013" class="t" style="font-size:13px;font-weight:500;fill:#8794A7">2026-03-03 12:15 系统触发地址预警</text>

  <rect x="80" y="1074" width="1440" height="86" rx="28" fill="#FFF" filter="url(#shadow4)"/>
  <rect x="1170" y="1091" width="150" height="52" rx="16" fill="#FFF" stroke="#D7DEE8"/>
  <text x="1228" y="1123" class="t btnw">取消</text>
  <rect x="1340" y="1091" width="140" height="52" rx="16" fill="#D97706"/>
  <text x="1392" y="1123" class="t btny">确认</text>
  <text x="124" y="1123" class="t body">确认型页面尽量收敛字段，优先突出预警原因与确认结果。</text>
</svg>
