<svg width="1600" height="1200" viewBox="0 0 1600 1200" fill="none" xmlns="http://www.w3.org/2000/svg">
  <defs>
    <linearGradient id="bg2" x1="0" y1="0" x2="1600" y2="1200" gradientUnits="userSpaceOnUse">
      <stop stop-color="#F8FAFC"/>
      <stop offset="1" stop-color="#EEF2F7"/>
    </linearGradient>
    <linearGradient id="hero2" x1="80" y1="84" x2="1520" y2="220" gradientUnits="userSpaceOnUse">
      <stop stop-color="#5A3420"/>
      <stop offset="1" stop-color="#8A4C22"/>
    </linearGradient>
    <filter id="shadow2" x="-20%" y="-20%" width="140%" height="140%">
      <feDropShadow dx="0" dy="12" stdDeviation="16" flood-color="#A7B6C8" flood-opacity="0.25"/>
    </filter>
    <style>
      .t{font-family:"PingFang SC","Microsoft YaHei","Noto Sans SC",sans-serif}
      .h1{font-size:34px;font-weight:700;fill:#FFF}
      .s1{font-size:15px;font-weight:500;fill:#E7D9CD}
      .title{font-size:22px;font-weight:700;fill:#203044}
      .sub{font-size:15px;font-weight:500;fill:#7B8AA0}
      .k{font-size:14px;font-weight:500;fill:#6B7A90}
      .v{font-size:18px;font-weight:700;fill:#203044}
      .body{font-size:15px;font-weight:500;fill:#324255}
      .small{font-size:13px;font-weight:500;fill:#8794A7}
      .chip{font-size:14px;font-weight:700;fill:#9A3412}
      .btn{font-size:18px;font-weight:700;fill:#324255}
    </style>
  </defs>
  <rect width="1600" height="1200" fill="url(#bg2)"/>
  <rect x="80" y="84" width="1440" height="150" rx="28" fill="url(#hero2)" filter="url(#shadow2)"/>
  <text x="124" y="138" class="t h1">异常运单详情</text>
  <text x="124" y="173" class="t s1">运单管理 / 异常运单 / 退货查看</text>
  <rect x="124" y="190" width="160" height="44" rx="22" fill="#FFEDD5"/>
  <text x="162" y="218" class="t chip">拦截件-退货</text>
  <text x="360" y="214" class="t s1">当前状态</text>
  <text x="440" y="214" class="t" style="font-size:17px;font-weight:700;fill:#FFF">退货登记完成</text>
  <text x="650" y="214" class="t s1">可见范围</text>
  <text x="730" y="214" class="t" style="font-size:17px;font-weight:700;fill:#FFF">发起退货网点</text>

  <rect x="80" y="274" width="1440" height="94" rx="24" fill="#FFF7ED" filter="url(#shadow2)"/>
  <text x="120" y="324" class="t" style="font-size:18px;font-weight:700;fill:#9A3412">该异常类型仅发起退货网点可查看，不支持修改。</text>

  <rect x="80" y="402" width="930" height="638" rx="28" fill="#FFF" filter="url(#shadow2)"/>
  <rect x="1042" y="402" width="478" height="638" rx="28" fill="#FFF" filter="url(#shadow2)"/>

  <text x="120" y="456" class="t title">运单基础信息</text>
  <text x="120" y="484" class="t sub">只读展示，不提供操作控件</text>
  <rect x="120" y="512" width="850" height="150" rx="18" fill="#F8FAFC"/>
  <text x="150" y="552" class="t k">运单号</text>
  <text x="150" y="580" class="t v">ZT202603030002</text>
  <text x="410" y="552" class="t k">客户名称</text>
  <text x="410" y="580" class="t v">XX 食品有限公司</text>
  <text x="700" y="552" class="t k">当前状态</text>
  <text x="700" y="580" class="t v">退货处理中</text>
  <text x="150" y="620" class="t k">寄件网点</text>
  <text x="150" y="646" class="t body">上海寄件网点</text>
  <text x="410" y="620" class="t k">派件网点</text>
  <text x="410" y="646" class="t body">杭州派件网点</text>
  <text x="700" y="620" class="t k">货品信息</text>
  <text x="700" y="646" class="t body">冷链食品 / 3件 / 25KG</text>

  <text x="120" y="724" class="t title">退货异常信息</text>
  <rect x="120" y="752" width="850" height="248" rx="18" fill="#F8FAFC"/>
  <text x="150" y="792" class="t k">退货发起网点</text>
  <text x="150" y="820" class="t v">上海寄件网点</text>
  <text x="420" y="792" class="t k">登记人</text>
  <text x="420" y="820" class="t v">张三</text>
  <text x="640" y="792" class="t k">登记时间</text>
  <text x="640" y="820" class="t v">2026-03-03 09:40</text>
  <text x="150" y="872" class="t k">退货原因</text>
  <text x="150" y="900" class="t v">客户拒收</text>
  <text x="420" y="872" class="t k">附件凭证</text>
  <text x="420" y="900" class="t body">拒收凭证 2 份，可点击查看</text>
  <text x="150" y="946" class="t k">退货说明</text>
  <text x="150" y="974" class="t body">客户无法联系且已超约定时限，网点登记退回，仅保留查看和追踪能力。</text>

  <text x="1082" y="456" class="t title">流程状态</text>
  <line x1="1118" y1="532" x2="1446" y2="532" stroke="#E6ECF2" stroke-width="6" stroke-linecap="round"/>
  <line x1="1118" y1="532" x2="1446" y2="532" stroke="#C2410C" stroke-width="6" stroke-linecap="round"/>
  <circle cx="1118" cy="532" r="22" fill="#C2410C"/>
  <circle cx="1446" cy="532" r="22" fill="#C2410C"/>
  <text x="1086" y="584" class="t body">退货登记</text>
  <text x="1410" y="584" class="t body">仅查看</text>

  <rect x="1082" y="644" width="398" height="132" rx="20" fill="#FFF7ED"/>
  <text x="1110" y="684" class="t k">当前节点</text>
  <text x="1110" y="718" class="t" style="font-size:24px;font-weight:700;fill:#9A3412">退货登记完成</text>
  <text x="1110" y="750" class="t body">当前页面用于回看退货原因、附件和时间线，不开放编辑。</text>

  <text x="1082" y="834" class="t title">权限说明</text>
  <rect x="1082" y="862" width="398" height="126" rx="20" fill="#F8FAFC"/>
  <text x="1110" y="902" class="t k">当前登录角色</text>
  <text x="1244" y="902" class="t body">发起退货网点</text>
  <text x="1110" y="942" class="t k">当前可执行动作</text>
  <text x="1244" y="942" class="t body">仅查看</text>

  <rect x="80" y="1074" width="1440" height="86" rx="28" fill="#FFF" filter="url(#shadow2)"/>
  <text x="124" y="1123" class="t body">查看型页面采用大段只读信息和弱化按钮，避免误导用户存在可编辑能力。</text>
  <rect x="1340" y="1091" width="140" height="52" rx="16" fill="#FFF" stroke="#D0D8E2"/>
  <text x="1392" y="1123" class="t btn">返回</text>
</svg>
